<svg xmlns="http://www.w3.org/2000/svg" xmlns:xlink="http://www.w3.org/1999/xlink" version="1.1" style="enable-background:new 0 0 496 496;" xml:space="preserve" width="496" height="496"><rect id="backgroundrect" width="100%" height="100%" x="0" y="0" fill="none" stroke="none"/> <g class="currentLayer" style=""><title>Layer 1</title><g id="svg_1" class="selected" fill-opacity="1" fill="#f76c4a"><g id="svg_2" fill="#f76c4a">
	<g id="svg_3" fill="#f76c4a">
		<g id="svg_4" fill="#f76c4a">
			<path d="M480,246.816V0H0v288h146.968c-1.912,10.384-2.968,21.072-2.968,32c0,97.048,78.952,176,176,176s176-78.952,176-176     C496,293.896,490.24,269.12,480,246.816z M16,272V16h448v202.992c-4.864-6.92-10.216-13.464-16-19.6V184h-16v0.336     c-22.648-18.728-50.064-31.864-80.112-37.392C351.912,145.96,352,144.992,352,144c0-61.76-50.24-112-112-112S128,82.24,128,144     c0,33.648,14.864,64.832,40.712,86.208c-7.72,12.952-13.792,26.976-18,41.792H16z M263.192,104     c-1.216-5.944-3.856-11.328-7.392-16H280V72h-56h-8h-16v16h16h8c10.416,0,19.216,6.712,22.528,16H200v16h46.528     c-3.312,9.288-12.112,16-22.528,16h-16v19.312l16.784,16.784c-18.352,11.856-34.368,27.016-47.192,44.656     C156.256,198.464,144,172.256,144,144c0-52.936,43.064-96,96-96c52.936,0,96,43.064,96,96c0,0.256-0.024,0.504-0.032,0.76     C330.704,144.28,325.384,144,320,144c-29.16,0-56.664,7.168-80.912,19.776l-11.904-11.904     c17.88-1.416,32.464-14.656,35.976-31.872H280v-16H263.192z M320,480c-88.224,0-160-71.776-160-160s71.776-160,160-160     s160,71.776,160,160S408.224,480,320,480z" data-original="#000000" class="active-path" data-old_color="#f5421c" fill="#f76c4a" id="svg_5"/>
			<path d="M320,176c-79.4,0-144,64.6-144,144s64.6,144,144,144c39.728,0,76.728-15.832,104.176-44.584L412.6,408.368     C388.2,433.92,355.312,448,320,448c-70.576,0-128-57.424-128-128s57.424-128,128-128s128,57.424,128,128     c0,27.6-8.64,53.88-24.992,76l12.856,9.512C454.272,380.616,464,351.048,464,320C464,240.6,399.4,176,320,176z" data-original="#000000" class="active-path" data-old_color="#f5421c" fill="#f76c4a" id="svg_6"/>
			<path d="M400,240H296h-24h-32v16h32h24c19.312,0,35.472,13.768,39.192,32H240v16h95.192c-3.72,18.232-19.872,32-39.192,32h-32     v18.744l57.688,74.168l12.624-9.832L282.136,352H296c28.152,0,51.456-20.912,55.36-48H400v-16h-48.64     c-1.792-12.448-7.656-23.592-16.248-32H400V240z" data-original="#000000" class="active-path" data-old_color="#f5421c" fill="#f76c4a" id="svg_7"/>
			<polygon points="432,104 448,104 448,32 376,32 376,48 432,48    " data-original="#000000" class="active-path" data-old_color="#f5421c" fill="#f76c4a" id="svg_8"/>
			<polygon points="32,104 48,104 48,48 104,48 104,32 32,32    " data-original="#000000" class="active-path" data-old_color="#f5421c" fill="#f76c4a" id="svg_9"/>
			<polygon points="48,184 32,184 32,256 104,256 104,240 48,240    " data-original="#000000" class="active-path" data-old_color="#f5421c" fill="#f76c4a" id="svg_10"/>
		</g>
	</g>
</g></g></g></svg>