<?xml version="1.0" encoding="iso-8859-1"?>
<!-- Generator: Adobe Illustrator 19.0.0, SVG Export Plug-In . SVG Version: 6.00 Build 0)  -->
<svg xmlns="http://www.w3.org/2000/svg" xmlns:xlink="http://www.w3.org/1999/xlink" version="1.1" id="Capa_1" x="0px" y="0px" viewBox="0 0 512.004 512.004" style="enable-background:new 0 0 512.004 512.004;" xml:space="preserve" width="512px" height="512px">
<g>
	<g>
		<path d="M499.597,47.763l-35.355-35.355c-8-8-18.673-12.406-30.052-12.406c-11.38,0-22.053,4.406-30.053,12.406L283.939,132.607    c-6.328,6.306-11.261,13.673-14.663,21.895c-0.296,0.694-0.579,1.374-0.84,2l-2.219,5.333c-1.831,4.408-4.269,10.285-6.705,16.162    l-6.461,15.59c-2.213-0.712-4.55-1.082-6.946-1.082c-6.021,0-11.671,2.334-15.908,6.572l-21.215,21.213    c-8.771,8.773-8.771,23.047,0,31.819l9.546,9.546L98.909,381.274l-30.14,10.047c-1.104,0.368-2.108,0.989-2.932,1.812    l-63.64,63.64c-2.929,2.929-2.929,7.678,0,10.606l42.426,42.426c1.409,1.407,3.316,2.197,5.305,2.197    c1.989,0,3.896-0.79,5.304-2.197l63.64-63.64c0.823-0.823,1.443-1.827,1.812-2.931l10.047-30.141L250.35,293.475l9.547,9.546    c4.237,4.238,9.888,6.571,15.909,6.571c6.022,0,11.672-2.334,15.909-6.572l21.215-21.213c6.182-6.182,8.007-15.097,5.476-22.893    c9.562-3.975,26.031-10.802,38.204-15.844c8.575-3.406,16.242-8.454,22.788-15.003l120.201-120.202    c8-8,12.405-18.672,12.405-30.052C512.002,66.435,507.597,55.762,499.597,47.763z M49.928,493.896l-31.819-31.82l10.606-10.606    l31.82,31.819L49.928,493.896z M118.871,403.739c-0.823,0.823-1.443,1.827-1.812,2.931l-10.048,30.141l-35.869,35.871    l-31.82-31.82l35.871-35.871l30.14-10.047c1.104-0.368,2.108-0.989,2.932-1.812l120.87-120.87l10.606,10.606L118.871,403.739z     M302.322,271.202l-21.215,21.213c-1.404,1.405-3.287,2.178-5.303,2.178c-2.015,0-3.898-0.773-5.303-2.178l-36.059-36.059    c-0.007-0.007-14.853-14.853-14.853-14.853c-2.924-2.924-2.924-7.683-0.001-10.607l21.215-21.213    c1.404-1.405,3.287-2.178,5.302-2.178c2.012,0,3.894,0.772,5.298,2.173c0.008,0.007,50.918,50.917,50.918,50.917    C305.244,263.52,305.244,268.278,302.322,271.202z M488.99,97.26l-1.768,1.768l-15.909-15.91c-2.929-2.929-7.677-2.93-10.607,0    c-2.929,2.929-2.929,7.677,0,10.606l15.91,15.91l-107.829,107.83c-5.104,5.106-11.078,9.038-17.759,11.684    c-0.036,0.014-0.071,0.029-0.107,0.043c0,0-11.541,4.78-23.083,9.567c-5.772,2.394-11.545,4.79-15.875,6.59    c-0.944,0.392-1.804,0.75-2.596,1.08l-43.82-43.819c7.299-17.616,16.787-40.499,17.495-42.156    c0.032-0.072,0.063-0.144,0.094-0.217c2.641-6.383,6.473-12.104,11.399-17.014L402.37,35.389l37.122,37.123    c1.465,1.464,3.385,2.197,5.304,2.197c1.919,0,3.839-0.732,5.304-2.197c2.929-2.929,2.929-7.678,0-10.606l-37.123-37.124    l1.768-1.768c5.165-5.166,12.072-8.012,19.445-8.012c7.372,0,14.278,2.846,19.444,8.012l35.356,35.355    c5.167,5.167,8.012,12.073,8.012,19.446S494.157,92.093,488.99,97.26z" fill="#FFFFFF"/>
	</g>
</g>
<g>
</g>
<g>
</g>
<g>
</g>
<g>
</g>
<g>
</g>
<g>
</g>
<g>
</g>
<g>
</g>
<g>
</g>
<g>
</g>
<g>
</g>
<g>
</g>
<g>
</g>
<g>
</g>
<g>
</g>
</svg>
