<svg xmlns="http://www.w3.org/2000/svg" xmlns:xlink="http://www.w3.org/1999/xlink" version="1.1" style="enable-background:new 0 0 509.287 509.287;" xml:space="preserve" width="509.287" height="509.287"><rect id="backgroundrect" width="100%" height="100%" x="0" y="0" fill="none" stroke="none"/>

























<g class="currentLayer" style=""><title>Layer 1</title><circle style="fill:#1d1d1f;" cx="254.6439971923828" cy="254.6439971923828" r="254.6439971923828" id="svg_1"/><path style="" d="M116.302,72.901v357.383c0,8.816,7.121,15.936,15.936,15.936h213.277  c8.816,0,15.936-7.121,15.936-15.936V72.901c0-8.816-7.121-15.936-15.936-15.936H132.238  C123.423,56.964,116.302,64.085,116.302,72.901z" id="svg_2" class="" fill-opacity="1" fill="#f76c4a"/><rect x="131.55999755859375" y="89.85399627685547" style="fill:#1d1d1f;" width="214.63299560546875" height="304.48699951171875" id="svg_3"/><g id="svg_4">
	<circle style="fill:#1d1d1f;" cx="238.70700073242188" cy="420.1109924316406" r="15.935999870300293" id="svg_5"/>
	<path style="fill:#1d1d1f;" d="M218.702,76.291c0,1.695,1.356,3.052,3.052,3.052h33.568c1.695,0,3.052-1.356,3.052-3.052   c0-1.695-1.356-3.052-3.052-3.052h-33.568C220.058,73.24,218.702,74.596,218.702,76.291z" id="svg_6"/>
</g><rect x="380.8030090332031" y="329.7669982910156" transform="matrix(-0.7071,0.7071,-0.7071,-0.7071,915.6517,321.9647) " style="" width="20.683000564575195" height="41.70600128173828" id="svg_7" class="" fill-opacity="1" fill="#f76c4a"/><circle style="fill:#1d1d1f;" cx="284.14300537109375" cy="243.79299926757812" r="139.697998046875" id="svg_8"/><circle style="" cx="284.14300537109375" cy="243.79299926757812" r="113.25" id="svg_9" class="" fill-opacity="1" fill="#f76c4a"/><circle style="fill:#1d1d1f;" cx="284.14300537109375" cy="243.79299926757812" r="100.70500183105469" id="svg_10"/><g id="svg_11" class="selected" fill-opacity="1" fill="#f76c4a">
	<path style="" d="M460.461,449.611c3.391,3.391,8.477,3.391,11.868,0l20.005-20.005c3.391-3.391,3.391-8.477,0-11.868   l-2.374-2.374l-31.873,31.873L460.461,449.611z" id="svg_12" fill="#f76c4a"/>
	<path style="" d="M423.502,348.906c-3.391-3.391-8.477-3.391-11.868,0l-20.005,20.005   c-3.391,3.391-3.391,8.477,0,11.868l2.373,2.374l31.873-31.873L423.502,348.906z" id="svg_13" fill="#f76c4a"/>
</g><rect x="396.7359924316406" y="377.0409851074219" transform="matrix(0.7071,0.7071,-0.7071,0.7071,411.8913,-195.555) " style="" width="90.53199768066406" height="44.75699996948242" id="svg_14" class="" fill-opacity="1" fill="#f76c4a"/><g id="svg_15">
</g><g id="svg_16">
</g><g id="svg_17">
</g><g id="svg_18">
</g><g id="svg_19">
</g><g id="svg_20">
</g><g id="svg_21">
</g><g id="svg_22">
</g><g id="svg_23">
</g><g id="svg_24">
</g><g id="svg_25">
</g><g id="svg_26">
</g><g id="svg_27">
</g><g id="svg_28">
</g><g id="svg_29">
</g></g></svg>